<svg width="255" height="252" viewBox="0 0 255 252" fill="none" xmlns="http://www.w3.org/2000/svg">
<g id="LOGO">
<rect id="Rectangle" x="5" y="5" width="245" height="242" rx="15" stroke="#7F00FF" stroke-width="10"/>
<rect id="Rectangle_2" x="5" y="5" width="168" height="166" rx="35" transform="translate(39 38)" stroke="#00D1B2" stroke-width="10"/>
<path id="P" d="M48.6 -2.76001C48.52 -3.64001 49.04 -4.00001 50.16 -3.84001C51.28 -3.76 52.52 -3.28 53.88 -2.4C55.24 -1.60001 56.52 -0.440006 57.72 1.07999C59 2.59999 59.72 4.35999 59.88 6.36C59.96 7.31999 59.8 8.47999 59.4 9.83999C59.08 11.12 58.6 12.52 57.96 14.04C57.32 15.48 56.56 17 55.68 18.6C54.88 20.12 54.04 21.64 53.16 23.16C51.08 26.68 48.72 30.32 46.08 34.08C53.28 32.8 59.56 30.68 64.92 27.72C70.28 24.76 74.68 21.44 78.12 17.76C81.64 14 84.2 10.12 85.8 6.11999C87.4 2.12 88.04 -1.64 87.72 -5.16001C87.4 -8.6 86.28 -11.52 84.36 -13.92C82.52 -16.32 80.24 -18.28 77.52 -19.8C74.8 -21.32 71.84 -22.4 68.64 -23.04C65.52 -23.68 62.56 -24 59.76 -24C54.4 -24 49.08 -23.28 43.8 -21.84C38.52 -20.4 33.48 -18.4 28.68 -15.84C23.96 -13.36 19.6 -10.44 15.6 -7.08C11.6 -3.8 8.16 -0.280001 5.28 3.48C2.4 7.24 0.2 11.08 -1.32 15C-2.84 18.92 -3.44 22.76 -3.12 26.52C-2.96 28.52 -2.6 30.16 -2.04 31.44C-1.56 32.64 -1.04 33.64 -0.48 34.44C0.16 35.32 0.88 36 1.68 36.48C2.88 37.2 3.84 37.84 4.56 38.4C5.2 38.88 5.6 39.32 5.76 39.72C5.92 40.12 5.44 40.32 4.32 40.32C2.16 40.32 -0.04 39.84 -2.28 38.88C-4.52 37.92 -6.56 36.44 -8.4 34.44C-10.24 32.36 -11.8 29.76 -13.08 26.64C-14.44 23.44 -15.28 19.64 -15.6 15.24C-15.92 10.68 -15 6.44 -12.84 2.52C-10.76 -1.48 -7.84 -5.08001 -4.08 -8.28001C-0.32 -11.56 4.04 -14.44 9 -16.92C14.04 -19.48 19.32 -21.6 24.84 -23.28C30.36 -25.04 35.96 -26.36 41.64 -27.24C47.32 -28.2 52.68 -28.68 57.72 -28.68C62.52 -28.68 67.56 -28.24 72.84 -27.36C78.12 -26.48 83.04 -24.92 87.6 -22.68C92.16 -20.52 96 -17.56 99.12 -13.8C102.24 -10.04 104.04 -5.28 104.52 0.479994C104.76 3.35999 104.56 6.08 103.92 8.64C103.28 11.2 102.36 13.6 101.16 15.84C99.96 18.08 98.56 20.12 96.96 21.96C95.44 23.8 93.84 25.48 92.16 27C88.24 30.52 83.64 33.56 78.36 36.12L71.76 39.36C68 41.04 64.12 42.32 60.12 43.2C56.12 44 52.44 44.6 49.08 45C45.16 45.4 41.36 45.6 37.68 45.6C33.2 51.52 29.2 57 25.68 62.04C24.16 64.2 22.68 66.4 21.24 68.64C19.8 70.88 18.52 73 17.4 75C16.28 76.92 15.36 78.68 14.64 80.28C14 81.88 13.68 83.12 13.68 84C13.68 85.84 13.64 87.28 13.56 88.32C13.56 89.28 12.88 89.76 11.52 89.76C10.8 89.76 10.04 89.44 9.24 88.8C8.52 88.16 7.84 87.2 7.2 85.92C6.56 84.56 6 82.92 5.52 81C5.12 79.08 4.92 76.8 4.92 74.16C4.92 71.12 6 67.32 8.16 62.76C10.4 58.2 13.16 53.32 16.44 48.12C19.72 42.92 23.24 37.64 27 32.28C30.84 26.84 34.36 21.8 37.56 17.16C40.84 12.44 43.52 8.32 45.6 4.8C47.68 1.28 48.68 -1.24 48.6 -2.76001Z" transform="translate(84 90)" fill="#536DFE"/>
</g>
</svg>
